<svg width="24" height="24" viewBox="0 0 24 24" fill="none" xmlns="http://www.w3.org/2000/svg">
<g opacity="0.4" clip-path="url(#clip0_36_318)">
<path d="M3.40717 12.1328C3.40715 12.6851 3.85487 13.1329 4.40717 13.1329H5.46967C6.02194 13.1329 6.46965 12.6852 6.46967 12.1329L6.46968 11.9631C6.4697 11.4108 6.02198 10.963 5.46968 10.963H4.40718C3.85491 10.963 3.4072 11.4107 3.40718 11.963L3.40717 12.1328ZM3.40722 17.1301C3.40722 17.6824 3.85493 18.1301 4.40722 18.1301H5.46971C6.022 18.1301 6.46971 17.6824 6.46971 17.1301V16.8507C6.46971 16.2984 6.022 15.8507 5.46971 15.8507H4.40721C3.85493 15.8507 3.40722 16.2984 3.40722 16.8507V17.1301ZM3.40722 7.06987C3.40722 7.62215 3.85493 8.06987 4.40722 8.06987H5.46971C6.022 8.06987 6.46971 7.62215 6.46971 7.06987V6.98767C6.46971 6.43539 6.022 5.98767 5.46971 5.98767H4.40722C3.85493 5.98767 3.40722 6.43539 3.40722 6.98767V7.06987ZM7.99995 12.1328C7.99993 12.6851 8.44765 13.1329 8.99995 13.1329H19.9999C20.5522 13.1329 20.9999 12.6852 20.9999 12.1329L21 11.9631C21 11.4108 20.5523 10.963 20 10.963H8.99995C8.44768 10.963 7.99997 11.4107 7.99995 11.963L7.99995 12.1328ZM7.99999 17.1301C7.99999 17.6824 8.4477 18.1301 8.99999 18.1301H20C20.5523 18.1301 21 17.6824 21 17.1301L21 16.8507C21 16.2984 20.5523 15.8507 20 15.8507H8.99999C8.4477 15.8507 7.99999 16.2984 7.99999 16.8507V17.1301ZM8.99999 5.98767C8.44771 5.98767 7.99999 6.43539 7.99999 6.98767L7.99999 7.06987C7.99999 7.62215 8.4477 8.06987 8.99999 8.06987H20C20.5523 8.06987 21 7.62216 21 7.06987L21 6.98767C21 6.43539 20.5523 5.98767 20 5.98767H8.99999Z" fill="white"/>
</g>
<defs>
<clipPath id="clip0_36_318">
<rect width="24" height="24" fill="white"/>
</clipPath>
</defs>
</svg>
